#!OML:ASF I:\Actors\actors\Patient Classification 1\Patient 1\Session 1\Subject1.ASF
:FULLY-SPECIFIED
:DEGREES
581
root 0.647741 17.5202 9.41287 11.3334 -5.06918 -9.67658
lowerback 0.132769 0.527122 8.23767
upperback -8.90669 1.24676 1.47921
thorax -9.43899 0.0236513 -3.11785
lowerneck -5.45405 7.79254 9.25707
upperneck 7.0241 11.3053 -17.2442
head 4.53607 5.12032 -6.13701
rclavicle 2.76311e-014 -5.00937e-014
rhumerus 77.7781 45.6659 -18.1342
rradius 94.634
rwrist 32.4317
rhand -15.8001 -31.7147
rfingers 7.12502
rthumb 10.393 -61.4379
lclavicle 2.76311e-014 -5.00937e-014
lhumerus 8.09357 19.5391 73.1673
lradius 93.7655
lwrist 95.3731
lhand -6.39328 -6.1949
lfingers 7.12502
lthumb 19.4543 22.8519
rfemur -5.50579 23.8898 25.0331
rtibia 2.61274
rfoot -12.2838 -23.5959
rtoes -0.963319
lfemur 6.07202 -45.3453 -11.1336
ltibia -4.48214
lfoot -30.2183 55.0096
ltoes 15.2629
582
root 0.647945 17.5208 9.41422 11.3268 -5.05859 -9.66659
lowerback 0.149262 0.507016 8.20667
upperback -8.89176 1.218 1.46772
thorax -9.43487 0.0119611 -3.11097
lowerneck -5.46997 7.79942 9.30741
upperneck 7.18421 11.3442 -17.3486
head 4.60159 5.12977 -6.17455
rclavicle -1.15295e-014 3.1408e-014
rhumerus 78.7091 45.659 -17.7186
rradius 94.5031
rwrist 32.4044
rhand -16.248 -31.6139
rfingers 7.12502
rthumb 9.96091 -61.3582
lclavicle -1.15295e-014 3.1408e-014
lhumerus 8.11101 19.5656 73.2528
lradius 93.8328
lwrist 95.3541
lhand -6.78695 -6.39365
lfingers 7.12502
lthumb 19.0757 22.6909
rfemur -5.48924 23.8297 25.0226
rtibia 2.5853
rfoot -12.2635 -23.5709
rtoes -0.804832
lfemur 6.06337 -45.325 -11.1444
ltibia -4.46326
lfoot -30.3361 54.9427
ltoes 15.4869
583
root 0.64838 17.5216 9.41535 11.2987 -5.05322 -9.63301
lowerback 0.197122 0.494508 8.15873
upperback -8.85393 1.19914 1.4368
thorax -9.42186 0.00648221 -3.11676
lowerneck -5.65504 7.83572 9.26902
upperneck 7.45155 11.4209 -17.307
head 4.71946 5.14914 -6.14047
rclavicle -1.44119e-015 -2.5842e-014
rhumerus 79.4624 45.555 -17.3766
rradius 94.4427
rwrist 32.197
rhand -16.2462 -31.8171
rfingers 7.12502
rthumb 9.9626 -61.5614
lclavicle -1.44119e-015 -2.5842e-014
lhumerus 8.1812 19.5655 73.3219
lradius 93.7498
lwrist 95.3282
lhand -6.61272 -6.46396
lfingers 7.12502
lthumb 19.2433 22.604
rfemur -5.46207 23.7597 24.9908
rtibia 2.57955
rfoot -12.28 -23.5159
rtoes -0.71013
lfemur 6.0832 -45.3158 -11.2104
ltibia -4.43472
lfoot -30.4941 54.8699
ltoes 15.7194
584
root 0.648833 17.5225 9.41595 11.2686 -5.02803 -9.62253
lowerback 0.241627 0.477456 8.12616
upperback -8.83456 1.17677 1.41977
thorax -9.42857 -0.00249213 -3.11578
lowerneck -5.71586 7.88247 9.32167
upperneck 7.60803 11.5085 -17.3779
head 4.79685 5.1816 -6.16124
rclavicle 3.31473e-014 1.63003e-014
rhumerus 80.0486 45.5066 -17.143
rradius 94.5349
rwrist 31.543
rhand -15.7193 -32.45
rfingers 7.12502
rthumb 10.4709 -62.1693
lclavicle 3.31473e-014 1.63003e-014
lhumerus 8.1788 19.5548 73.3588
lradius 93.7634
lwrist 95.7324
lhand -6.3025 -6.16247
lfingers 7.12502
lthumb 19.5415 22.8755
rfemur -5.43062 23.7527 24.9914
rtibia 2.58744
rfoot -12.3437 -23.5276
rtoes -0.502982
lfemur 6.09458 -45.2619 -11.2335
ltibia -4.42287
lfoot -30.4625 54.8166
ltoes 15.7389
585
root 0.648832 17.5229 9.41647 11.2544 -5.0147 -9.62444
lowerback 0.2492 0.482797 8.1012
upperback -8.88976 1.1849 1.39599
thorax -9.49379 -0.00156869 -3.12791
lowerneck -5.41799 7.88765 9.47247
upperneck 7.65989 11.5438 -17.5154
head 4.78303 5.21034 -6.2384
rclavicle -8.24956e-015 1.66979e-014
rhumerus 80.4937 45.6406 -17.0455
rradius 94.5838
rwrist 30.9927
rhand -15.3518 -32.8883
rfingers 7.12502
rthumb 10.8255 -62.5893
lclavicle -8.24956e-015 1.66979e-014
lhumerus 7.96218 19.472 73.3532
lradius 93.9539
lwrist 96.5237
lhand -6.48922 -5.86676
lfingers 7.12502
lthumb 19.362 23.1893
rfemur -5.41033 23.7859 25.0052
rtibia 2.59476
rfoot -12.3993 -23.5525
rtoes -0.21791
lfemur 6.11278 -45.2255 -11.2383
ltibia -4.43788
lfoot -30.4118 54.8098
ltoes 15.6886
